<svg xmlns="http://www.w3.org/2000/svg" version="1.1" xmlns:xlink="http://www.w3.org/1999/xlink" xmlns:svgjs="http://svgjs.dev/svgjs" width="1423" height="560" preserveAspectRatio="none" viewBox="0 0 1423 560"><g mask="url(&quot;#SvgjsMask1086&quot;)" fill="none"><rect width="1423" height="560" x="0" y="0" fill="rgba(212, 216, 220, 1)"></rect><path d="M-97.94 369.71L-97.94 369.71" stroke="rgba(180, 183, 189, 1)" stroke-width="1.5"></path><path d="M-97.94 369.71L-80.22 522.25" stroke="rgba(180, 183, 189, 1)" stroke-width="1.5"></path><path d="M-97.94 369.71L79.93 340.43" stroke="rgba(180, 183, 189, 1)" stroke-width="1.5"></path><path d="M-80.22 522.25L-80.22 522.25" stroke="rgba(180, 183, 189, 1)" stroke-width="1.5"></path><path d="M-80.22 522.25L-92.33 649.68" stroke="rgba(180, 183, 189, 1)" stroke-width="1.5"></path><path d="M-80.22 522.25L47.93 527.28" stroke="rgba(180, 183, 189, 1)" stroke-width="1.5"></path><path d="M-92.33 649.68L-92.33 649.68" stroke="rgba(180, 183, 189, 1)" stroke-width="1.5"></path><path d="M-92.33 649.68L45.58 639.23" stroke="rgba(180, 183, 189, 1)" stroke-width="1.5"></path><path d="M-92.33 649.68L47.93 527.28" stroke="rgba(180, 183, 189, 1)" stroke-width="1.5"></path><path d="M79.93 340.43L79.93 340.43" stroke="rgba(180, 183, 189, 1)" stroke-width="1.5"></path><path d="M79.93 340.43L203.17 359.93" stroke="rgba(180, 183, 189, 1)" stroke-width="1.5"></path><path d="M79.93 340.43L47.93 527.28" stroke="rgba(180, 183, 189, 1)" stroke-width="1.5"></path><path d="M79.93 340.43L-80.22 522.25" stroke="rgba(180, 183, 189, 1)" stroke-width="1.5"></path><path d="M79.93 340.43L360.58 409.47" stroke="rgba(180, 183, 189, 1)" stroke-width="1.5"></path><path d="M47.93 527.28L47.93 527.28" stroke="rgba(180, 183, 189, 1)" stroke-width="1.5"></path><path d="M47.93 527.28L45.58 639.23" stroke="rgba(180, 183, 189, 1)" stroke-width="1.5"></path><path d="M45.58 639.23L45.58 639.23" stroke="rgba(180, 183, 189, 1)" stroke-width="1.5"></path><path d="M203.17 359.93L203.17 359.93" stroke="rgba(180, 183, 189, 1)" stroke-width="1.5"></path><path d="M203.17 359.93L360.58 409.47" stroke="rgba(180, 183, 189, 1)" stroke-width="1.5"></path><path d="M203.17 359.93L375.67 502.28" stroke="rgba(180, 183, 189, 1)" stroke-width="1.5"></path><path d="M203.17 359.93L47.93 527.28" stroke="rgba(180, 183, 189, 1)" stroke-width="1.5"></path><path d="M203.17 359.93L497.57 342.75" stroke="rgba(180, 183, 189, 1)" stroke-width="1.5"></path><path d="M211.3 690.58L211.3 690.58" stroke="rgba(180, 183, 189, 1)" stroke-width="1.5"></path><path d="M211.3 690.58L45.58 639.23" stroke="rgba(180, 183, 189, 1)" stroke-width="1.5"></path><path d="M211.3 690.58L405.4 690.41" stroke="rgba(180, 183, 189, 1)" stroke-width="1.5"></path><path d="M211.3 690.58L47.93 527.28" stroke="rgba(180, 183, 189, 1)" stroke-width="1.5"></path><path d="M211.3 690.58L375.67 502.28" stroke="rgba(180, 183, 189, 1)" stroke-width="1.5"></path><path d="M211.3 690.58L-92.33 649.68" stroke="rgba(180, 183, 189, 1)" stroke-width="1.5"></path><path d="M211.3 690.58L360.58 409.47" stroke="rgba(180, 183, 189, 1)" stroke-width="1.5"></path><path d="M360.58 409.47L360.58 409.47" stroke="rgba(180, 183, 189, 1)" stroke-width="1.5"></path><path d="M360.58 409.47L375.67 502.28" stroke="rgba(180, 183, 189, 1)" stroke-width="1.5"></path><path d="M360.58 409.47L497.57 342.75" stroke="rgba(180, 183, 189, 1)" stroke-width="1.5"></path><path d="M360.58 409.47L561.22 540.5" stroke="rgba(180, 183, 189, 1)" stroke-width="1.5"></path><path d="M360.58 409.47L405.4 690.41" stroke="rgba(180, 183, 189, 1)" stroke-width="1.5"></path><path d="M375.67 502.28L375.67 502.28" stroke="rgba(180, 183, 189, 1)" stroke-width="1.5"></path><path d="M375.67 502.28L561.22 540.5" stroke="rgba(180, 183, 189, 1)" stroke-width="1.5"></path><path d="M375.67 502.28L405.4 690.41" stroke="rgba(180, 183, 189, 1)" stroke-width="1.5"></path><path d="M405.4 690.41L405.4 690.41" stroke="rgba(180, 183, 189, 1)" stroke-width="1.5"></path><path d="M405.4 690.41L530.81 672.65" stroke="rgba(180, 183, 189, 1)" stroke-width="1.5"></path><path d="M497.57 342.75L497.57 342.75" stroke="rgba(180, 183, 189, 1)" stroke-width="1.5"></path><path d="M497.57 342.75L654.26 399.86" stroke="rgba(180, 183, 189, 1)" stroke-width="1.5"></path><path d="M561.22 540.5L561.22 540.5" stroke="rgba(180, 183, 189, 1)" stroke-width="1.5"></path><path d="M561.22 540.5L530.81 672.65" stroke="rgba(180, 183, 189, 1)" stroke-width="1.5"></path><path d="M561.22 540.5L686.8 487.8" stroke="rgba(180, 183, 189, 1)" stroke-width="1.5"></path><path d="M530.81 672.65L530.81 672.65" stroke="rgba(180, 183, 189, 1)" stroke-width="1.5"></path><path d="M530.81 672.65L375.67 502.28" stroke="rgba(180, 183, 189, 1)" stroke-width="1.5"></path><path d="M530.81 672.65L686.8 487.8" stroke="rgba(180, 183, 189, 1)" stroke-width="1.5"></path><path d="M530.81 672.65L797.95 556.18" stroke="rgba(180, 183, 189, 1)" stroke-width="1.5"></path><path d="M530.81 672.65L654.26 399.86" stroke="rgba(180, 183, 189, 1)" stroke-width="1.5"></path><path d="M655.74 235.85L655.74 235.85" stroke="rgba(180, 183, 189, 1)" stroke-width="1.5"></path><path d="M655.74 235.85L654.26 399.86" stroke="rgba(180, 183, 189, 1)" stroke-width="1.5"></path><path d="M655.74 235.85L834.66 192.6" stroke="rgba(180, 183, 189, 1)" stroke-width="1.5"></path><path d="M655.74 235.85L497.57 342.75" stroke="rgba(180, 183, 189, 1)" stroke-width="1.5"></path><path d="M654.26 399.86L654.26 399.86" stroke="rgba(180, 183, 189, 1)" stroke-width="1.5"></path><path d="M654.26 399.86L686.8 487.8" stroke="rgba(180, 183, 189, 1)" stroke-width="1.5"></path><path d="M686.8 487.8L686.8 487.8" stroke="rgba(180, 183, 189, 1)" stroke-width="1.5"></path><path d="M686.8 487.8L797.95 556.18" stroke="rgba(180, 183, 189, 1)" stroke-width="1.5"></path><path d="M822.55 101.6L822.55 101.6" stroke="rgba(180, 183, 189, 1)" stroke-width="1.5"></path><path d="M822.55 101.6L834.66 192.6" stroke="rgba(180, 183, 189, 1)" stroke-width="1.5"></path><path d="M822.55 101.6L984.29 71.29" stroke="rgba(180, 183, 189, 1)" stroke-width="1.5"></path><path d="M834.66 192.6L834.66 192.6" stroke="rgba(180, 183, 189, 1)" stroke-width="1.5"></path><path d="M852.53 369.56L852.53 369.56" stroke="rgba(180, 183, 189, 1)" stroke-width="1.5"></path><path d="M852.53 369.56L949.08 397.86" stroke="rgba(180, 183, 189, 1)" stroke-width="1.5"></path><path d="M852.53 369.56L955.55 241.47" stroke="rgba(180, 183, 189, 1)" stroke-width="1.5"></path><path d="M852.53 369.56L834.66 192.6" stroke="rgba(180, 183, 189, 1)" stroke-width="1.5"></path><path d="M852.53 369.56L797.95 556.18" stroke="rgba(180, 183, 189, 1)" stroke-width="1.5"></path><path d="M797.95 556.18L797.95 556.18" stroke="rgba(180, 183, 189, 1)" stroke-width="1.5"></path><path d="M797.95 556.18L853.16 692.6" stroke="rgba(180, 183, 189, 1)" stroke-width="1.5"></path><path d="M797.95 556.18L976.38 534.38" stroke="rgba(180, 183, 189, 1)" stroke-width="1.5"></path><path d="M853.16 692.6L853.16 692.6" stroke="rgba(180, 183, 189, 1)" stroke-width="1.5"></path><path d="M853.16 692.6L948.9 685.5" stroke="rgba(180, 183, 189, 1)" stroke-width="1.5"></path><path d="M853.16 692.6L976.38 534.38" stroke="rgba(180, 183, 189, 1)" stroke-width="1.5"></path><path d="M853.16 692.6L686.8 487.8" stroke="rgba(180, 183, 189, 1)" stroke-width="1.5"></path><path d="M853.16 692.6L1150.26 639.56" stroke="rgba(180, 183, 189, 1)" stroke-width="1.5"></path><path d="M853.16 692.6L1131.94 558.37" stroke="rgba(180, 183, 189, 1)" stroke-width="1.5"></path><path d="M982.42 -76.74L982.42 -76.74" stroke="rgba(180, 183, 189, 1)" stroke-width="1.5"></path><path d="M982.42 -76.74L1088.88 -81.08" stroke="rgba(180, 183, 189, 1)" stroke-width="1.5"></path><path d="M982.42 -76.74L984.29 71.29" stroke="rgba(180, 183, 189, 1)" stroke-width="1.5"></path><path d="M982.42 -76.74L1098.84 42.39" stroke="rgba(180, 183, 189, 1)" stroke-width="1.5"></path><path d="M982.42 -76.74L822.55 101.6" stroke="rgba(180, 183, 189, 1)" stroke-width="1.5"></path><path d="M984.29 71.29L984.29 71.29" stroke="rgba(180, 183, 189, 1)" stroke-width="1.5"></path><path d="M984.29 71.29L1098.84 42.39" stroke="rgba(180, 183, 189, 1)" stroke-width="1.5"></path><path d="M984.29 71.29L955.55 241.47" stroke="rgba(180, 183, 189, 1)" stroke-width="1.5"></path><path d="M984.29 71.29L1088.88 -81.08" stroke="rgba(180, 183, 189, 1)" stroke-width="1.5"></path><path d="M955.55 241.47L955.55 241.47" stroke="rgba(180, 183, 189, 1)" stroke-width="1.5"></path><path d="M955.55 241.47L834.66 192.6" stroke="rgba(180, 183, 189, 1)" stroke-width="1.5"></path><path d="M955.55 241.47L949.08 397.86" stroke="rgba(180, 183, 189, 1)" stroke-width="1.5"></path><path d="M949.08 397.86L949.08 397.86" stroke="rgba(180, 183, 189, 1)" stroke-width="1.5"></path><path d="M949.08 397.86L976.38 534.38" stroke="rgba(180, 183, 189, 1)" stroke-width="1.5"></path><path d="M949.08 397.86L1153.24 375.55" stroke="rgba(180, 183, 189, 1)" stroke-width="1.5"></path><path d="M949.08 397.86L797.95 556.18" stroke="rgba(180, 183, 189, 1)" stroke-width="1.5"></path><path d="M949.08 397.86L1116.25 247.13" stroke="rgba(180, 183, 189, 1)" stroke-width="1.5"></path><path d="M976.38 534.38L976.38 534.38" stroke="rgba(180, 183, 189, 1)" stroke-width="1.5"></path><path d="M976.38 534.38L948.9 685.5" stroke="rgba(180, 183, 189, 1)" stroke-width="1.5"></path><path d="M976.38 534.38L1131.94 558.37" stroke="rgba(180, 183, 189, 1)" stroke-width="1.5"></path><path d="M976.38 534.38L1150.26 639.56" stroke="rgba(180, 183, 189, 1)" stroke-width="1.5"></path><path d="M948.9 685.5L948.9 685.5" stroke="rgba(180, 183, 189, 1)" stroke-width="1.5"></path><path d="M1088.88 -81.08L1088.88 -81.08" stroke="rgba(180, 183, 189, 1)" stroke-width="1.5"></path><path d="M1088.88 -81.08L1098.84 42.39" stroke="rgba(180, 183, 189, 1)" stroke-width="1.5"></path><path d="M1098.84 42.39L1098.84 42.39" stroke="rgba(180, 183, 189, 1)" stroke-width="1.5"></path><path d="M1116.25 247.13L1116.25 247.13" stroke="rgba(180, 183, 189, 1)" stroke-width="1.5"></path><path d="M1116.25 247.13L1153.24 375.55" stroke="rgba(180, 183, 189, 1)" stroke-width="1.5"></path><path d="M1116.25 247.13L955.55 241.47" stroke="rgba(180, 183, 189, 1)" stroke-width="1.5"></path><path d="M1116.25 247.13L1244.02 369.37" stroke="rgba(180, 183, 189, 1)" stroke-width="1.5"></path><path d="M1153.24 375.55L1153.24 375.55" stroke="rgba(180, 183, 189, 1)" stroke-width="1.5"></path><path d="M1153.24 375.55L1244.02 369.37" stroke="rgba(180, 183, 189, 1)" stroke-width="1.5"></path><path d="M1153.24 375.55L1131.94 558.37" stroke="rgba(180, 183, 189, 1)" stroke-width="1.5"></path><path d="M1131.94 558.37L1131.94 558.37" stroke="rgba(180, 183, 189, 1)" stroke-width="1.5"></path><path d="M1131.94 558.37L1150.26 639.56" stroke="rgba(180, 183, 189, 1)" stroke-width="1.5"></path><path d="M1131.94 558.37L1263.94 529.24" stroke="rgba(180, 183, 189, 1)" stroke-width="1.5"></path><path d="M1150.26 639.56L1150.26 639.56" stroke="rgba(180, 183, 189, 1)" stroke-width="1.5"></path><path d="M1150.26 639.56L1270.64 687.98" stroke="rgba(180, 183, 189, 1)" stroke-width="1.5"></path><path d="M1150.26 639.56L1263.94 529.24" stroke="rgba(180, 183, 189, 1)" stroke-width="1.5"></path><path d="M1275.43 -76.51L1275.43 -76.51" stroke="rgba(180, 183, 189, 1)" stroke-width="1.5"></path><path d="M1275.43 -76.51L1296.54 58.07" stroke="rgba(180, 183, 189, 1)" stroke-width="1.5"></path><path d="M1275.43 -76.51L1437.19 -103.67" stroke="rgba(180, 183, 189, 1)" stroke-width="1.5"></path><path d="M1296.54 58.07L1296.54 58.07" stroke="rgba(180, 183, 189, 1)" stroke-width="1.5"></path><path d="M1296.54 58.07L1295.04 216.98" stroke="rgba(180, 183, 189, 1)" stroke-width="1.5"></path><path d="M1296.54 58.07L1456.33 58.44" stroke="rgba(180, 183, 189, 1)" stroke-width="1.5"></path><path d="M1296.54 58.07L1098.84 42.39" stroke="rgba(180, 183, 189, 1)" stroke-width="1.5"></path><path d="M1296.54 58.07L1437.19 -103.67" stroke="rgba(180, 183, 189, 1)" stroke-width="1.5"></path><path d="M1296.54 58.07L1423.31 242.13" stroke="rgba(180, 183, 189, 1)" stroke-width="1.5"></path><path d="M1295.04 216.98L1295.04 216.98" stroke="rgba(180, 183, 189, 1)" stroke-width="1.5"></path><path d="M1295.04 216.98L1423.31 242.13" stroke="rgba(180, 183, 189, 1)" stroke-width="1.5"></path><path d="M1295.04 216.98L1244.02 369.37" stroke="rgba(180, 183, 189, 1)" stroke-width="1.5"></path><path d="M1244.02 369.37L1244.02 369.37" stroke="rgba(180, 183, 189, 1)" stroke-width="1.5"></path><path d="M1244.02 369.37L1396.86 412.3" stroke="rgba(180, 183, 189, 1)" stroke-width="1.5"></path><path d="M1263.94 529.24L1263.94 529.24" stroke="rgba(180, 183, 189, 1)" stroke-width="1.5"></path><path d="M1263.94 529.24L1398.6 530.93" stroke="rgba(180, 183, 189, 1)" stroke-width="1.5"></path><path d="M1270.64 687.98L1270.64 687.98" stroke="rgba(180, 183, 189, 1)" stroke-width="1.5"></path><path d="M1270.64 687.98L1422.52 681.53" stroke="rgba(180, 183, 189, 1)" stroke-width="1.5"></path><path d="M1270.64 687.98L1263.94 529.24" stroke="rgba(180, 183, 189, 1)" stroke-width="1.5"></path><path d="M1270.64 687.98L1131.94 558.37" stroke="rgba(180, 183, 189, 1)" stroke-width="1.5"></path><path d="M1437.19 -103.67L1437.19 -103.67" stroke="rgba(180, 183, 189, 1)" stroke-width="1.5"></path><path d="M1437.19 -103.67L1560.88 -91.75" stroke="rgba(180, 183, 189, 1)" stroke-width="1.5"></path><path d="M1437.19 -103.67L1456.33 58.44" stroke="rgba(180, 183, 189, 1)" stroke-width="1.5"></path><path d="M1437.19 -103.67L1561.72 108.8" stroke="rgba(180, 183, 189, 1)" stroke-width="1.5"></path><path d="M1437.19 -103.67L1550.14 219.81" stroke="rgba(180, 183, 189, 1)" stroke-width="1.5"></path><path d="M1456.33 58.44L1456.33 58.44" stroke="rgba(180, 183, 189, 1)" stroke-width="1.5"></path><path d="M1456.33 58.44L1561.72 108.8" stroke="rgba(180, 183, 189, 1)" stroke-width="1.5"></path><path d="M1456.33 58.44L1560.88 -91.75" stroke="rgba(180, 183, 189, 1)" stroke-width="1.5"></path><path d="M1456.33 58.44L1423.31 242.13" stroke="rgba(180, 183, 189, 1)" stroke-width="1.5"></path><path d="M1423.31 242.13L1423.31 242.13" stroke="rgba(180, 183, 189, 1)" stroke-width="1.5"></path><path d="M1423.31 242.13L1550.14 219.81" stroke="rgba(180, 183, 189, 1)" stroke-width="1.5"></path><path d="M1423.31 242.13L1396.86 412.3" stroke="rgba(180, 183, 189, 1)" stroke-width="1.5"></path><path d="M1396.86 412.3L1396.86 412.3" stroke="rgba(180, 183, 189, 1)" stroke-width="1.5"></path><path d="M1396.86 412.3L1398.6 530.93" stroke="rgba(180, 183, 189, 1)" stroke-width="1.5"></path><path d="M1396.86 412.3L1263.94 529.24" stroke="rgba(180, 183, 189, 1)" stroke-width="1.5"></path><path d="M1396.86 412.3L1590.07 407.27" stroke="rgba(180, 183, 189, 1)" stroke-width="1.5"></path><path d="M1396.86 412.3L1295.04 216.98" stroke="rgba(180, 183, 189, 1)" stroke-width="1.5"></path><path d="M1398.6 530.93L1398.6 530.93" stroke="rgba(180, 183, 189, 1)" stroke-width="1.5"></path><path d="M1398.6 530.93L1422.52 681.53" stroke="rgba(180, 183, 189, 1)" stroke-width="1.5"></path><path d="M1398.6 530.93L1270.64 687.98" stroke="rgba(180, 183, 189, 1)" stroke-width="1.5"></path><path d="M1422.52 681.53L1422.52 681.53" stroke="rgba(180, 183, 189, 1)" stroke-width="1.5"></path><path d="M1422.52 681.53L1574.03 684.62" stroke="rgba(180, 183, 189, 1)" stroke-width="1.5"></path><path d="M1560.88 -91.75L1560.88 -91.75" stroke="rgba(180, 183, 189, 1)" stroke-width="1.5"></path><path d="M1560.88 -91.75L1561.72 108.8" stroke="rgba(180, 183, 189, 1)" stroke-width="1.5"></path><path d="M1560.88 -91.75L1275.43 -76.51" stroke="rgba(180, 183, 189, 1)" stroke-width="1.5"></path><path d="M1561.72 108.8L1561.72 108.8" stroke="rgba(180, 183, 189, 1)" stroke-width="1.5"></path><path d="M1561.72 108.8L1550.14 219.81" stroke="rgba(180, 183, 189, 1)" stroke-width="1.5"></path><path d="M1561.72 108.8L1423.31 242.13" stroke="rgba(180, 183, 189, 1)" stroke-width="1.5"></path><path d="M1561.72 108.8L1296.54 58.07" stroke="rgba(180, 183, 189, 1)" stroke-width="1.5"></path><path d="M1550.14 219.81L1550.14 219.81" stroke="rgba(180, 183, 189, 1)" stroke-width="1.5"></path><path d="M1550.14 219.81L1456.33 58.44" stroke="rgba(180, 183, 189, 1)" stroke-width="1.5"></path><path d="M1550.14 219.81L1590.07 407.27" stroke="rgba(180, 183, 189, 1)" stroke-width="1.5"></path><path d="M1550.14 219.81L1396.86 412.3" stroke="rgba(180, 183, 189, 1)" stroke-width="1.5"></path><path d="M1590.07 407.27L1590.07 407.27" stroke="rgba(180, 183, 189, 1)" stroke-width="1.5"></path><path d="M1590.07 407.27L1612.39 532.56" stroke="rgba(180, 183, 189, 1)" stroke-width="1.5"></path><path d="M1590.07 407.27L1398.6 530.93" stroke="rgba(180, 183, 189, 1)" stroke-width="1.5"></path><path d="M1612.39 532.56L1612.39 532.56" stroke="rgba(180, 183, 189, 1)" stroke-width="1.5"></path><path d="M1612.39 532.56L1574.03 684.62" stroke="rgba(180, 183, 189, 1)" stroke-width="1.5"></path><path d="M1574.03 684.62L1574.03 684.62" stroke="rgba(180, 183, 189, 1)" stroke-width="1.5"></path><circle r="5" cx="-97.94" cy="369.71" fill="rgba(180, 183, 189, 1)"></circle><circle r="5" cx="-80.22" cy="522.25" fill="rgba(180, 183, 189, 1)"></circle><circle r="5" cx="-92.33" cy="649.68" fill="rgba(180, 183, 189, 1)"></circle><circle r="5" cx="79.93" cy="340.43" fill="rgba(180, 183, 189, 1)"></circle><circle r="5" cx="47.93" cy="527.28" fill="rgba(180, 183, 189, 1)"></circle><circle r="5" cx="45.58" cy="639.23" fill="rgba(180, 183, 189, 1)"></circle><circle r="5" cx="203.17" cy="359.93" fill="rgba(180, 183, 189, 1)"></circle><circle r="5" cx="211.3" cy="690.58" fill="rgba(180, 183, 189, 1)"></circle><circle r="5" cx="360.58" cy="409.47" fill="rgba(180, 183, 189, 1)"></circle><circle r="5" cx="375.67" cy="502.28" fill="rgba(180, 183, 189, 1)"></circle><circle r="5" cx="405.4" cy="690.41" fill="rgba(180, 183, 189, 1)"></circle><circle r="5" cx="497.57" cy="342.75" fill="rgba(180, 183, 189, 1)"></circle><circle r="5" cx="561.22" cy="540.5" fill="rgba(180, 183, 189, 1)"></circle><circle r="5" cx="530.81" cy="672.65" fill="rgba(180, 183, 189, 1)"></circle><circle r="5" cx="655.74" cy="235.85" fill="rgba(180, 183, 189, 1)"></circle><circle r="5" cx="654.26" cy="399.86" fill="rgba(180, 183, 189, 1)"></circle><circle r="5" cx="686.8" cy="487.8" fill="rgba(180, 183, 189, 1)"></circle><circle r="5" cx="822.55" cy="101.6" fill="rgba(180, 183, 189, 1)"></circle><circle r="5" cx="834.66" cy="192.6" fill="rgba(180, 183, 189, 1)"></circle><circle r="5" cx="852.53" cy="369.56" fill="rgba(180, 183, 189, 1)"></circle><circle r="5" cx="797.95" cy="556.18" fill="rgba(180, 183, 189, 1)"></circle><circle r="5" cx="853.16" cy="692.6" fill="rgba(180, 183, 189, 1)"></circle><circle r="5" cx="982.42" cy="-76.74" fill="rgba(180, 183, 189, 1)"></circle><circle r="5" cx="984.29" cy="71.29" fill="rgba(180, 183, 189, 1)"></circle><circle r="5" cx="955.55" cy="241.47" fill="rgba(180, 183, 189, 1)"></circle><circle r="5" cx="949.08" cy="397.86" fill="rgba(180, 183, 189, 1)"></circle><circle r="5" cx="976.38" cy="534.38" fill="rgba(180, 183, 189, 1)"></circle><circle r="5" cx="948.9" cy="685.5" fill="rgba(180, 183, 189, 1)"></circle><circle r="5" cx="1088.88" cy="-81.08" fill="rgba(180, 183, 189, 1)"></circle><circle r="5" cx="1098.84" cy="42.39" fill="rgba(180, 183, 189, 1)"></circle><circle r="5" cx="1116.25" cy="247.13" fill="rgba(180, 183, 189, 1)"></circle><circle r="5" cx="1153.24" cy="375.55" fill="rgba(180, 183, 189, 1)"></circle><circle r="5" cx="1131.94" cy="558.37" fill="rgba(180, 183, 189, 1)"></circle><circle r="5" cx="1150.26" cy="639.56" fill="rgba(180, 183, 189, 1)"></circle><circle r="5" cx="1275.43" cy="-76.51" fill="rgba(180, 183, 189, 1)"></circle><circle r="5" cx="1296.54" cy="58.07" fill="rgba(180, 183, 189, 1)"></circle><circle r="5" cx="1295.04" cy="216.98" fill="rgba(180, 183, 189, 1)"></circle><circle r="5" cx="1244.02" cy="369.37" fill="rgba(180, 183, 189, 1)"></circle><circle r="5" cx="1263.94" cy="529.24" fill="rgba(180, 183, 189, 1)"></circle><circle r="5" cx="1270.64" cy="687.98" fill="rgba(180, 183, 189, 1)"></circle><circle r="5" cx="1437.19" cy="-103.67" fill="rgba(180, 183, 189, 1)"></circle><circle r="5" cx="1456.33" cy="58.44" fill="rgba(180, 183, 189, 1)"></circle><circle r="5" cx="1423.31" cy="242.13" fill="rgba(180, 183, 189, 1)"></circle><circle r="5" cx="1396.86" cy="412.3" fill="rgba(180, 183, 189, 1)"></circle><circle r="5" cx="1398.6" cy="530.93" fill="rgba(180, 183, 189, 1)"></circle><circle r="5" cx="1422.52" cy="681.53" fill="rgba(180, 183, 189, 1)"></circle><circle r="5" cx="1560.88" cy="-91.75" fill="rgba(180, 183, 189, 1)"></circle><circle r="5" cx="1561.72" cy="108.8" fill="rgba(180, 183, 189, 1)"></circle><circle r="5" cx="1550.14" cy="219.81" fill="rgba(180, 183, 189, 1)"></circle><circle r="5" cx="1590.07" cy="407.27" fill="rgba(180, 183, 189, 1)"></circle><circle r="5" cx="1612.39" cy="532.56" fill="rgba(180, 183, 189, 1)"></circle><circle r="5" cx="1574.03" cy="684.62" fill="rgba(180, 183, 189, 1)"></circle><path d="M530.91 647.88L530.91 647.88" stroke="hsl(0, 0%, 100%)" stroke-width="1.5"></path><path d="M530.91 647.88L672.37 657.44" stroke="hsl(0, 0%, 100%)" stroke-width="1.5"></path><path d="M530.91 647.88L351.8 709.48" stroke="hsl(0, 0%, 100%)" stroke-width="1.5"></path><path d="M530.91 647.88L664.71 506.21" stroke="hsl(0, 0%, 100%)" stroke-width="1.5"></path><path d="M530.91 647.88L794.93 661.51" stroke="hsl(0, 0%, 100%)" stroke-width="1.5"></path><path d="M530.91 647.88L254.26 501.03" stroke="hsl(0, 0%, 100%)" stroke-width="1.5"></path><path d="M530.91 647.88L851.15 538.66" stroke="hsl(0, 0%, 100%)" stroke-width="1.5"></path><path d="M1090.13 638.31L1090.13 638.31" stroke="hsl(0, 0%, 100%)" stroke-width="1.5"></path><path d="M1090.13 638.31L997.76 673.89" stroke="hsl(0, 0%, 100%)" stroke-width="1.5"></path><path d="M1090.13 638.31L1007.07 537.81" stroke="hsl(0, 0%, 100%)" stroke-width="1.5"></path><path d="M1090.13 638.31L1301.66 508.04" stroke="hsl(0, 0%, 100%)" stroke-width="1.5"></path><path d="M1431.23 223.35L1431.23 223.35" stroke="hsl(0, 0%, 100%)" stroke-width="1.5"></path><path d="M1431.23 223.35L1400.78 97.44" stroke="hsl(0, 0%, 100%)" stroke-width="1.5"></path><path d="M1431.23 223.35L1398.46 383.42" stroke="hsl(0, 0%, 100%)" stroke-width="1.5"></path><path d="M1431.23 223.35L1610.8 241.86" stroke="hsl(0, 0%, 100%)" stroke-width="1.5"></path><path d="M1431.23 223.35L1545.3 82.99" stroke="hsl(0, 0%, 100%)" stroke-width="1.5"></path><path d="M1434.42 704.29L1434.42 704.29" stroke="hsl(0, 0%, 100%)" stroke-width="1.5"></path><path d="M1434.42 704.29L1559.39 641.17" stroke="hsl(0, 0%, 100%)" stroke-width="1.5"></path><path d="M1434.42 704.29L1394.58 536.09" stroke="hsl(0, 0%, 100%)" stroke-width="1.5"></path><path d="M1434.42 704.29L1611.19 551.25" stroke="hsl(0, 0%, 100%)" stroke-width="1.5"></path><path d="M1434.42 704.29L1301.66 508.04" stroke="hsl(0, 0%, 100%)" stroke-width="1.5"></path><path d="M1609.92 368.52L1609.92 368.52" stroke="hsl(0, 0%, 100%)" stroke-width="1.5"></path><path d="M1609.92 368.52L1610.8 241.86" stroke="hsl(0, 0%, 100%)" stroke-width="1.5"></path><path d="M1609.92 368.52L1611.19 551.25" stroke="hsl(0, 0%, 100%)" stroke-width="1.5"></path><path d="M1609.92 368.52L1398.46 383.42" stroke="hsl(0, 0%, 100%)" stroke-width="1.5"></path><path d="M1609.92 368.52L1431.23 223.35" stroke="hsl(0, 0%, 100%)" stroke-width="1.5"></path><path d="M1609.92 368.52L1394.58 536.09" stroke="hsl(0, 0%, 100%)" stroke-width="1.5"></path><path d="M1609.92 368.52L1559.39 641.17" stroke="hsl(0, 0%, 100%)" stroke-width="1.5"></path><path d="M1559.39 641.17L1559.39 641.17" stroke="hsl(0, 0%, 100%)" stroke-width="1.5"></path><path d="M1559.39 641.17L1611.19 551.25" stroke="hsl(0, 0%, 100%)" stroke-width="1.5"></path><path d="M-97.95 557.33L-97.95 557.33" stroke="hsl(0, 0%, 100%)" stroke-width="1.5"></path><path d="M-97.95 557.33L-93.71 700.4" stroke="hsl(0, 0%, 100%)" stroke-width="1.5"></path><path d="M-97.95 557.33L47.45 495.82" stroke="hsl(0, 0%, 100%)" stroke-width="1.5"></path><path d="M-93.71 700.4L-93.71 700.4" stroke="hsl(0, 0%, 100%)" stroke-width="1.5"></path><path d="M-93.71 700.4L63.62 688.47" stroke="hsl(0, 0%, 100%)" stroke-width="1.5"></path><path d="M-93.71 700.4L47.45 495.82" stroke="hsl(0, 0%, 100%)" stroke-width="1.5"></path><path d="M-93.71 700.4L191.77 663.13" stroke="hsl(0, 0%, 100%)" stroke-width="1.5"></path><path d="M47.45 495.82L47.45 495.82" stroke="hsl(0, 0%, 100%)" stroke-width="1.5"></path><path d="M47.45 495.82L63.62 688.47" stroke="hsl(0, 0%, 100%)" stroke-width="1.5"></path><path d="M47.45 495.82L254.26 501.03" stroke="hsl(0, 0%, 100%)" stroke-width="1.5"></path><path d="M47.45 495.82L191.77 663.13" stroke="hsl(0, 0%, 100%)" stroke-width="1.5"></path><path d="M47.45 495.82L351.8 709.48" stroke="hsl(0, 0%, 100%)" stroke-width="1.5"></path><path d="M63.62 688.47L63.62 688.47" stroke="hsl(0, 0%, 100%)" stroke-width="1.5"></path><path d="M63.62 688.47L191.77 663.13" stroke="hsl(0, 0%, 100%)" stroke-width="1.5"></path><path d="M63.62 688.47L-97.95 557.33" stroke="hsl(0, 0%, 100%)" stroke-width="1.5"></path><path d="M63.62 688.47L254.26 501.03" stroke="hsl(0, 0%, 100%)" stroke-width="1.5"></path><path d="M254.26 501.03L254.26 501.03" stroke="hsl(0, 0%, 100%)" stroke-width="1.5"></path><path d="M254.26 501.03L191.77 663.13" stroke="hsl(0, 0%, 100%)" stroke-width="1.5"></path><path d="M254.26 501.03L351.8 709.48" stroke="hsl(0, 0%, 100%)" stroke-width="1.5"></path><path d="M254.26 501.03L-97.95 557.33" stroke="hsl(0, 0%, 100%)" stroke-width="1.5"></path><path d="M191.77 663.13L191.77 663.13" stroke="hsl(0, 0%, 100%)" stroke-width="1.5"></path><path d="M191.77 663.13L351.8 709.48" stroke="hsl(0, 0%, 100%)" stroke-width="1.5"></path><path d="M351.8 709.48L351.8 709.48" stroke="hsl(0, 0%, 100%)" stroke-width="1.5"></path><path d="M351.8 709.48L63.62 688.47" stroke="hsl(0, 0%, 100%)" stroke-width="1.5"></path><path d="M664.71 506.21L664.71 506.21" stroke="hsl(0, 0%, 100%)" stroke-width="1.5"></path><path d="M664.71 506.21L672.37 657.44" stroke="hsl(0, 0%, 100%)" stroke-width="1.5"></path><path d="M664.71 506.21L851.15 538.66" stroke="hsl(0, 0%, 100%)" stroke-width="1.5"></path><path d="M664.71 506.21L818.24 391.67" stroke="hsl(0, 0%, 100%)" stroke-width="1.5"></path><path d="M664.71 506.21L794.93 661.51" stroke="hsl(0, 0%, 100%)" stroke-width="1.5"></path><path d="M664.71 506.21L1007.07 537.81" stroke="hsl(0, 0%, 100%)" stroke-width="1.5"></path><path d="M672.37 657.44L672.37 657.44" stroke="hsl(0, 0%, 100%)" stroke-width="1.5"></path><path d="M672.37 657.44L794.93 661.51" stroke="hsl(0, 0%, 100%)" stroke-width="1.5"></path><path d="M672.37 657.44L851.15 538.66" stroke="hsl(0, 0%, 100%)" stroke-width="1.5"></path><path d="M818.24 391.67L818.24 391.67" stroke="hsl(0, 0%, 100%)" stroke-width="1.5"></path><path d="M818.24 391.67L851.15 538.66" stroke="hsl(0, 0%, 100%)" stroke-width="1.5"></path><path d="M818.24 391.67L993.23 363.54" stroke="hsl(0, 0%, 100%)" stroke-width="1.5"></path><path d="M818.24 391.67L1007.07 537.81" stroke="hsl(0, 0%, 100%)" stroke-width="1.5"></path><path d="M818.24 391.67L794.93 661.51" stroke="hsl(0, 0%, 100%)" stroke-width="1.5"></path><path d="M818.24 391.67L672.37 657.44" stroke="hsl(0, 0%, 100%)" stroke-width="1.5"></path><path d="M851.15 538.66L851.15 538.66" stroke="hsl(0, 0%, 100%)" stroke-width="1.5"></path><path d="M851.15 538.66L794.93 661.51" stroke="hsl(0, 0%, 100%)" stroke-width="1.5"></path><path d="M851.15 538.66L1007.07 537.81" stroke="hsl(0, 0%, 100%)" stroke-width="1.5"></path><path d="M794.93 661.51L794.93 661.51" stroke="hsl(0, 0%, 100%)" stroke-width="1.5"></path><path d="M993.23 363.54L993.23 363.54" stroke="hsl(0, 0%, 100%)" stroke-width="1.5"></path><path d="M993.23 363.54L1153.97 345.63" stroke="hsl(0, 0%, 100%)" stroke-width="1.5"></path><path d="M993.23 363.54L1007.07 537.81" stroke="hsl(0, 0%, 100%)" stroke-width="1.5"></path><path d="M993.23 363.54L1144.94 245.33" stroke="hsl(0, 0%, 100%)" stroke-width="1.5"></path><path d="M1007.07 537.81L1007.07 537.81" stroke="hsl(0, 0%, 100%)" stroke-width="1.5"></path><path d="M1007.07 537.81L997.76 673.89" stroke="hsl(0, 0%, 100%)" stroke-width="1.5"></path><path d="M1007.07 537.81L1153.97 345.63" stroke="hsl(0, 0%, 100%)" stroke-width="1.5"></path><path d="M997.76 673.89L997.76 673.89" stroke="hsl(0, 0%, 100%)" stroke-width="1.5"></path><path d="M997.76 673.89L851.15 538.66" stroke="hsl(0, 0%, 100%)" stroke-width="1.5"></path><path d="M997.76 673.89L794.93 661.51" stroke="hsl(0, 0%, 100%)" stroke-width="1.5"></path><path d="M997.76 673.89L993.23 363.54" stroke="hsl(0, 0%, 100%)" stroke-width="1.5"></path><path d="M997.76 673.89L672.37 657.44" stroke="hsl(0, 0%, 100%)" stroke-width="1.5"></path><path d="M1148.21 106.45L1148.21 106.45" stroke="hsl(0, 0%, 100%)" stroke-width="1.5"></path><path d="M1148.21 106.45L1254.36 96.18" stroke="hsl(0, 0%, 100%)" stroke-width="1.5"></path><path d="M1148.21 106.45L1144.94 245.33" stroke="hsl(0, 0%, 100%)" stroke-width="1.5"></path><path d="M1148.21 106.45L1153.97 345.63" stroke="hsl(0, 0%, 100%)" stroke-width="1.5"></path><path d="M1148.21 106.45L1400.78 97.44" stroke="hsl(0, 0%, 100%)" stroke-width="1.5"></path><path d="M1144.94 245.33L1144.94 245.33" stroke="hsl(0, 0%, 100%)" stroke-width="1.5"></path><path d="M1144.94 245.33L1153.97 345.63" stroke="hsl(0, 0%, 100%)" stroke-width="1.5"></path><path d="M1153.97 345.63L1153.97 345.63" stroke="hsl(0, 0%, 100%)" stroke-width="1.5"></path><path d="M1153.97 345.63L1302.66 399.59" stroke="hsl(0, 0%, 100%)" stroke-width="1.5"></path><path d="M1254.36 96.18L1254.36 96.18" stroke="hsl(0, 0%, 100%)" stroke-width="1.5"></path><path d="M1254.36 96.18L1400.78 97.44" stroke="hsl(0, 0%, 100%)" stroke-width="1.5"></path><path d="M1254.36 96.18L1144.94 245.33" stroke="hsl(0, 0%, 100%)" stroke-width="1.5"></path><path d="M1254.36 96.18L1431.23 223.35" stroke="hsl(0, 0%, 100%)" stroke-width="1.5"></path><path d="M1254.36 96.18L1394.49 -83.94" stroke="hsl(0, 0%, 100%)" stroke-width="1.5"></path><path d="M1302.66 399.59L1302.66 399.59" stroke="hsl(0, 0%, 100%)" stroke-width="1.5"></path><path d="M1302.66 399.59L1398.46 383.42" stroke="hsl(0, 0%, 100%)" stroke-width="1.5"></path><path d="M1302.66 399.59L1301.66 508.04" stroke="hsl(0, 0%, 100%)" stroke-width="1.5"></path><path d="M1302.66 399.59L1394.58 536.09" stroke="hsl(0, 0%, 100%)" stroke-width="1.5"></path><path d="M1302.66 399.59L1431.23 223.35" stroke="hsl(0, 0%, 100%)" stroke-width="1.5"></path><path d="M1301.66 508.04L1301.66 508.04" stroke="hsl(0, 0%, 100%)" stroke-width="1.5"></path><path d="M1301.66 508.04L1394.58 536.09" stroke="hsl(0, 0%, 100%)" stroke-width="1.5"></path><path d="M1301.66 508.04L1398.46 383.42" stroke="hsl(0, 0%, 100%)" stroke-width="1.5"></path><path d="M1394.49 -83.94L1394.49 -83.94" stroke="hsl(0, 0%, 100%)" stroke-width="1.5"></path><path d="M1394.49 -83.94L1400.78 97.44" stroke="hsl(0, 0%, 100%)" stroke-width="1.5"></path><path d="M1394.49 -83.94L1545.3 82.99" stroke="hsl(0, 0%, 100%)" stroke-width="1.5"></path><path d="M1400.78 97.44L1400.78 97.44" stroke="hsl(0, 0%, 100%)" stroke-width="1.5"></path><path d="M1400.78 97.44L1545.3 82.99" stroke="hsl(0, 0%, 100%)" stroke-width="1.5"></path><path d="M1398.46 383.42L1398.46 383.42" stroke="hsl(0, 0%, 100%)" stroke-width="1.5"></path><path d="M1398.46 383.42L1394.58 536.09" stroke="hsl(0, 0%, 100%)" stroke-width="1.5"></path><path d="M1398.46 383.42L1153.97 345.63" stroke="hsl(0, 0%, 100%)" stroke-width="1.5"></path><path d="M1394.58 536.09L1394.58 536.09" stroke="hsl(0, 0%, 100%)" stroke-width="1.5"></path><path d="M1545.3 82.99L1545.3 82.99" stroke="hsl(0, 0%, 100%)" stroke-width="1.5"></path><path d="M1545.3 82.99L1610.8 241.86" stroke="hsl(0, 0%, 100%)" stroke-width="1.5"></path><path d="M1545.3 82.99L1254.36 96.18" stroke="hsl(0, 0%, 100%)" stroke-width="1.5"></path><path d="M1545.3 82.99L1609.92 368.52" stroke="hsl(0, 0%, 100%)" stroke-width="1.5"></path><path d="M1610.8 241.86L1610.8 241.86" stroke="hsl(0, 0%, 100%)" stroke-width="1.5"></path><path d="M1610.8 241.86L1400.78 97.44" stroke="hsl(0, 0%, 100%)" stroke-width="1.5"></path><path d="M1611.19 551.25L1611.19 551.25" stroke="hsl(0, 0%, 100%)" stroke-width="1.5"></path><path d="M1611.19 551.25L1394.58 536.09" stroke="hsl(0, 0%, 100%)" stroke-width="1.5"></path><circle r="25" cx="530.91" cy="647.88" fill="url(&quot;#SvgjsRadialGradient1087&quot;)"></circle><circle r="25" cx="1090.13" cy="638.31" fill="url(&quot;#SvgjsRadialGradient1087&quot;)"></circle><circle r="25" cx="1431.23" cy="223.35" fill="url(&quot;#SvgjsRadialGradient1087&quot;)"></circle><circle r="25" cx="1434.42" cy="704.29" fill="url(&quot;#SvgjsRadialGradient1087&quot;)"></circle><circle r="25" cx="1609.92" cy="368.52" fill="url(&quot;#SvgjsRadialGradient1087&quot;)"></circle><circle r="25" cx="1559.39" cy="641.17" fill="url(&quot;#SvgjsRadialGradient1087&quot;)"></circle><circle r="5" cx="-97.95" cy="557.33" fill="#ffffff"></circle><circle r="5" cx="-93.71" cy="700.4" fill="#ffffff"></circle><circle r="5" cx="47.45" cy="495.82" fill="#ffffff"></circle><circle r="5" cx="63.62" cy="688.47" fill="#ffffff"></circle><circle r="5" cx="254.26" cy="501.03" fill="#ffffff"></circle><circle r="5" cx="191.77" cy="663.13" fill="#ffffff"></circle><circle r="5" cx="351.8" cy="709.48" fill="#ffffff"></circle><circle r="5" cx="664.71" cy="506.21" fill="#ffffff"></circle><circle r="5" cx="672.37" cy="657.44" fill="#ffffff"></circle><circle r="5" cx="818.24" cy="391.67" fill="#ffffff"></circle><circle r="5" cx="851.15" cy="538.66" fill="#ffffff"></circle><circle r="5" cx="794.93" cy="661.51" fill="#ffffff"></circle><circle r="5" cx="993.23" cy="363.54" fill="#ffffff"></circle><circle r="5" cx="1007.07" cy="537.81" fill="#ffffff"></circle><circle r="5" cx="997.76" cy="673.89" fill="#ffffff"></circle><circle r="5" cx="1148.21" cy="106.45" fill="#ffffff"></circle><circle r="5" cx="1144.94" cy="245.33" fill="#ffffff"></circle><circle r="5" cx="1153.97" cy="345.63" fill="#ffffff"></circle><circle r="5" cx="1254.36" cy="96.18" fill="#ffffff"></circle><circle r="5" cx="1302.66" cy="399.59" fill="#ffffff"></circle><circle r="5" cx="1301.66" cy="508.04" fill="#ffffff"></circle><circle r="5" cx="1394.49" cy="-83.94" fill="#ffffff"></circle><circle r="5" cx="1400.78" cy="97.44" fill="#ffffff"></circle><circle r="5" cx="1398.46" cy="383.42" fill="#ffffff"></circle><circle r="5" cx="1394.58" cy="536.09" fill="#ffffff"></circle><circle r="5" cx="1545.3" cy="82.99" fill="#ffffff"></circle><circle r="5" cx="1610.8" cy="241.86" fill="#ffffff"></circle><circle r="5" cx="1611.19" cy="551.25" fill="#ffffff"></circle></g><defs><mask id="SvgjsMask1086"><rect width="1423" height="560" fill="#ffffff"></rect></mask><radialGradient id="SvgjsRadialGradient1087"><stop stop-color="#ffffff" offset="0.1"></stop><stop stop-color="rgba(255, 255, 255, 1)" offset="0.2"></stop><stop stop-color="rgba(255, 255, 255, 0)" offset="1"></stop></radialGradient></defs></svg>